<?xml version="1.0" encoding="UTF-8"?>
<svg xmlns="http://www.w3.org/2000/svg" xmlns:xlink="http://www.w3.org/1999/xlink" width="512px" height="512px" viewBox="0 0 512 512" version="1.1">
<g id="surface1">
<path style="fill-rule:nonzero;fill:rgb(0%,0%,0%);fill-opacity:1;stroke-width:2.149;stroke-linecap:butt;stroke-linejoin:miter;stroke:rgb(0%,0%,0%);stroke-opacity:1;stroke-miterlimit:4;" d="M 18.983008 18.635938 C 19.146094 17.278906 19.09707 17.081055 20.107031 17.3 L 20.364063 17.323047 C 21.141016 17.358008 22.157031 17.198047 22.764063 16.921094 C 24.049023 16.325 24.810938 15.328906 23.543945 15.591016 C 20.653906 16.186914 20.443945 15.208008 20.443945 15.208008 C 23.49707 10.67793 24.774023 4.92793 23.671094 3.521094 C 20.666992 -0.318945 15.466016 1.49707 15.378906 1.544922 L 15.350977 1.55 C 14.781055 1.430078 14.150977 1.359961 13.421094 1.35 C 12.113086 1.330078 11.121094 1.692969 10.366992 2.264063 C 10.366992 2.264063 1.090039 -1.558008 1.521094 7.071094 C 1.613086 8.907031 4.150977 20.971094 7.181055 17.321094 C 8.290039 15.986914 9.359961 14.859961 9.359961 14.859961 C 9.890039 15.213086 10.526953 15.392969 11.193945 15.32793 L 11.246094 15.283984 C 11.230664 15.456836 11.237695 15.631055 11.266992 15.801953 C 10.486914 16.674023 10.716992 16.826953 9.157031 17.148047 C 7.578906 17.473047 8.507031 18.051953 9.110938 18.203906 C 9.844922 18.388086 11.542969 18.648047 12.691016 17.041992 L 12.644922 17.225 C 12.950977 17.469922 12.930078 18.984961 12.975 20.066992 C 13.019922 21.149023 13.091016 22.159961 13.311914 22.755078 C 13.533008 23.35 13.791992 24.884961 15.841992 24.455078 C 17.555078 24.088086 18.865039 23.558984 18.984961 18.644922 " transform="matrix(20,0,0,20,0,0)"/>
<path style=" stroke:none;fill-rule:nonzero;fill:rgb(20%,40.392157%,56.862745%);fill-opacity:1;" d="M 470.699219 312 C 412.898438 323.921875 408.699219 304.339844 408.699219 304.339844 C 469.761719 213.738281 495.300781 98.738281 473.261719 70.601562 C 413.179688 -6.199219 309.160156 30.140625 307.421875 31.078125 L 306.859375 31.179688 C 294.15625 28.628906 281.238281 27.285156 268.28125 27.160156 C 242.121094 26.761719 222.28125 34.019531 207.199219 45.441406 C 207.199219 45.441406 21.640625 -31 30.28125 141.578125 C 32.121094 178.300781 82.878906 419.578125 143.480469 346.578125 C 165.800781 319.738281 187.199219 297.199219 187.199219 297.199219 C 197.800781 304.261719 210.539062 307.859375 223.878906 306.558594 L 224.921875 305.679688 C 224.613281 309.136719 224.753906 312.617188 225.339844 316.039062 C 209.738281 333.480469 214.339844 336.539062 183.140625 342.960938 C 151.578125 349.460938 170.140625 361.039062 182.21875 364.078125 C 196.898438 367.761719 230.859375 372.960938 253.820312 340.839844 L 252.898438 344.5 C 259.019531 349.398438 263.300781 376.359375 262.578125 400.800781 C 261.859375 425.238281 261.378906 442 266.179688 455.121094 C 270.980469 468.238281 275.78125 497.71875 316.78125 489.121094 C 351.039062 481.78125 368.78125 462.71875 371.28125 431 C 373.039062 408.441406 377 411.761719 377.28125 391.601562 L 380.480469 382.039062 C 384.140625 351.441406 381.078125 341.578125 402.179688 346.179688 L 407.320312 346.640625 C 422.859375 347.339844 443.199219 344.140625 455.121094 338.601562 C 480.820312 326.679688 496.058594 306.761719 470.71875 312 Z M 470.699219 312 "/>
<path style="fill:none;stroke-width:0.716;stroke-linecap:round;stroke-linejoin:round;stroke:rgb(100%,100%,100%);stroke-opacity:1;stroke-miterlimit:4;" d="M 12.814063 16.466992 C 12.733984 19.313086 12.833984 22.178906 13.111914 22.866992 C 13.390039 23.555078 13.986914 24.916992 16.038086 24.478906 C 17.750977 24.111914 18.375 23.400977 18.644922 21.832031 L 19.27793 16.815039 M 10.356055 2.2 C 10.356055 2.2 1.07207 -1.596094 1.503906 7.033008 C 1.596094 8.868945 4.133984 20.933008 7.164062 17.283008 C 8.269922 15.95 9.269922 14.907031 9.269922 14.907031 M 15.369922 1.507031 C 15.05 1.607031 20.533984 -0.498047 23.651953 3.484961 C 24.751953 4.891992 23.476953 10.641992 20.424023 15.17207 " transform="matrix(20,0,0,20,0,0)"/>
<path style="fill:none;stroke-width:0.716;stroke-linecap:round;stroke-linejoin:bevel;stroke:rgb(100%,100%,100%);stroke-opacity:1;stroke-miterlimit:4;" d="M 20.425 15.169922 C 20.425 15.169922 20.625 16.15 23.525 15.551953 C 24.791992 15.290039 24.028906 16.285937 22.744922 16.882031 C 21.691016 17.37207 19.326953 17.49707 19.288086 16.82207 C 19.188086 15.076953 20.532031 15.607031 20.434961 15.169922 C 20.34707 14.775977 19.744922 14.390039 19.349023 13.425977 C 19.001953 12.585938 14.589063 6.135938 20.573047 7.092969 C 20.792969 7.048047 19.013086 1.392969 13.413086 1.310938 C 7.813086 1.228906 7.990039 8.196094 7.990039 8.196094 " transform="matrix(20,0,0,20,0,0)"/>
<path style="fill:none;stroke-width:0.716;stroke-linecap:butt;stroke-linejoin:round;stroke:rgb(100%,100%,100%);stroke-opacity:1;stroke-miterlimit:4;" d="M 11.24707 15.767969 C 10.466992 16.640039 10.69707 16.792969 9.136914 17.114062 C 7.558984 17.439063 8.486914 18.017969 9.091016 18.169922 C 9.825 18.353906 11.523047 18.614062 12.671094 17.007031 C 13.021094 16.516992 12.668945 15.736914 12.189063 15.539062 C 11.957031 15.442969 11.64707 15.323047 11.249023 15.768945 Z M 11.24707 15.767969 " transform="matrix(20,0,0,20,0,0)"/>
<path style="fill:none;stroke-width:0.716;stroke-linecap:round;stroke-linejoin:round;stroke:rgb(100%,100%,100%);stroke-opacity:1;stroke-miterlimit:4;" d="M 11.196094 15.75293 C 11.116016 15.240039 11.364063 14.631055 11.628906 13.916992 C 12.026953 12.84707 12.944922 11.776953 12.210938 8.380078 C 11.664062 5.85 7.991016 7.85293 7.991016 8.196094 C 7.991016 8.539062 8.157031 9.935938 7.931055 11.560938 C 7.633984 13.683008 9.281055 15.476953 11.176953 15.293945 " transform="matrix(20,0,0,20,0,0)"/>
<path style="fill-rule:nonzero;fill:rgb(100%,100%,100%);fill-opacity:1;stroke-width:0.239;stroke-linecap:butt;stroke-linejoin:miter;stroke:rgb(100%,100%,100%);stroke-opacity:1;stroke-miterlimit:4;" d="M 10.32207 8.144922 C 10.305078 8.261914 10.536914 8.575 10.838086 8.616992 C 11.139063 8.658984 11.396094 8.415039 11.413086 8.29707 C 11.430078 8.178906 11.198047 8.050977 10.89707 8.008984 C 10.596094 7.966992 10.336914 8.028906 10.32207 8.144922 Z M 10.32207 8.144922 " transform="matrix(20,0,0,20,0,0)"/>
<path style="fill-rule:nonzero;fill:rgb(100%,100%,100%);fill-opacity:1;stroke-width:0.119;stroke-linecap:butt;stroke-linejoin:miter;stroke:rgb(100%,100%,100%);stroke-opacity:1;stroke-miterlimit:4;" d="M 19.485938 7.906055 C 19.501953 8.023047 19.271094 8.335938 18.969922 8.37793 C 18.668945 8.419922 18.409961 8.175977 18.394922 8.058008 C 18.380078 7.940039 18.609961 7.811914 18.910937 7.769922 C 19.211914 7.72793 19.471094 7.790039 19.485938 7.906055 Z M 19.485938 7.906055 " transform="matrix(20,0,0,20,0,0)"/>
<path style="fill:none;stroke-width:0.716;stroke-linecap:round;stroke-linejoin:round;stroke:rgb(100%,100%,100%);stroke-opacity:1;stroke-miterlimit:4;" d="M 20.561914 7.094922 C 20.611914 8.015039 20.364063 8.640039 20.332031 9.618945 C 20.285938 11.041016 21.009961 12.668945 19.918945 14.299023 " transform="matrix(20,0,0,20,0,0)"/>
</g>
</svg>
